<svg width="48" height="48" viewBox="0 0 48 48" fill="none" xmlns="http://www.w3.org/2000/svg">
<mask id="mask0_1_97" style="mask-type:luminance" maskUnits="userSpaceOnUse" x="0" y="0" width="48" height="48">
<path d="M48 0H0V48H48V0Z" fill="white"/>
</mask>
<g mask="url(#mask0_1_97)">
<path d="M36.75 0H11.25C5.037 0 0 5.0368 0 11.25V36.75C0 42.963 5.037 48 11.25 48H36.75C42.963 48 48 42.963 48 36.75V11.25C48 5.0368 42.963 0 36.75 0Z" fill="#262626"/>
<path d="M19.056 34.241C19.056 34.241 17.617 35.117 20.059 35.368C23.008 35.744 24.567 35.681 27.822 35.055C27.822 35.055 28.699 35.62 29.889 36.057C22.562 39.188 13.295 35.87 19.056 34.241ZM18.117 30.171C18.117 30.171 16.552 31.361 18.994 31.611C22.186 31.924 24.692 31.987 29.012 31.111C29.012 31.111 29.576 31.738 30.515 32.051C21.687 34.68 11.793 32.299 18.117 30.171ZM35.399 37.31C35.399 37.31 36.463 38.186 34.209 38.875C30.014 40.127 16.614 40.504 12.858 38.875C11.543 38.311 14.047 37.497 14.861 37.372C15.675 37.184 16.113 37.184 16.113 37.184C14.673 36.182 6.533 39.251 11.98 40.134C26.945 42.576 39.281 39.069 35.399 37.316V37.31ZM19.745 25.913C19.745 25.913 12.92 27.542 17.302 28.104C19.181 28.354 22.875 28.292 26.319 28.042C29.137 27.791 31.961 27.29 31.961 27.29C31.961 27.29 30.959 27.729 30.27 28.167C23.314 29.984 9.977 29.17 13.797 27.291C17.054 25.7258 19.745 25.913 19.745 25.913ZM31.954 32.738C38.968 29.106 35.711 25.6001 33.457 26.039C32.893 26.164 32.643 26.289 32.643 26.289C32.643 26.289 32.831 25.913 33.269 25.789C37.715 24.2231 41.222 30.485 31.829 32.927C31.829 32.927 31.892 32.863 31.954 32.738ZM20.434 42.631C27.196 43.069 37.528 42.381 37.778 39.187C37.778 39.187 37.278 40.439 32.206 41.378C26.445 42.442 19.307 42.317 15.112 41.628C15.112 41.628 15.988 42.38 20.434 42.631Z" fill="white"/>
<path d="M27.691 5.25C27.691 5.25 31.573 9.1948 23.997 15.1424C17.923 19.9635 22.619 22.719 23.997 25.849C20.428 22.6562 17.861 19.8379 19.614 17.208C22.187 13.328 29.262 11.4496 27.691 5.25ZM25.688 23.2204C27.503 25.2866 25.187 27.165 25.187 27.165C25.187 27.165 29.821 24.7866 27.692 21.8426C25.751 19.0249 24.248 17.6472 32.388 12.9504C32.388 12.9504 19.552 16.1432 25.689 23.2191L25.688 23.2204Z" fill="#F58219"/>
</g>
</svg>
