<svg width="48" height="48" viewBox="0 0 48 48" fill="none" xmlns="http://www.w3.org/2000/svg">
<mask id="mask0_1_141" style="mask-type:luminance" maskUnits="userSpaceOnUse" x="0" y="0" width="48" height="48">
<path d="M48 0H0V48H48V0Z" fill="white"/>
</mask>
<g mask="url(#mask0_1_141)">
<path d="M36.75 0H11.25C5.0368 0 0 5.0368 0 11.25V36.75C0 42.963 5.0368 48 11.25 48H36.75C42.9632 48 48 42.963 48 36.75V11.25C48 5.0368 42.9632 0 36.75 0Z" fill="#262626"/>
<path d="M42.75 34.301C42.2042 34.507 41.6016 34.507 41.056 34.3C40.5105 34.092 40.0598 33.692 39.7892 33.175C38.0899 30.631 36.2134 28.202 34.4099 25.7207L33.6278 24.6782C31.4802 27.556 29.3325 30.318 27.3726 33.185C27.1172 33.679 26.691 34.064 26.1732 34.267C25.6553 34.471 25.0812 34.479 24.5579 34.29L32.6166 23.4793L25.1207 13.7107C25.6604 13.5158 26.2506 13.5132 26.7919 13.7031C27.3332 13.893 27.7924 14.2639 28.092 14.7532C29.833 17.297 31.7618 19.7261 33.6799 22.3012C35.6087 19.7469 37.5165 17.3074 39.2993 14.7845C39.556 14.2983 39.9825 13.9234 40.4978 13.7311C41.0129 13.5389 41.5808 13.5428 42.0932 13.7419L39.1845 17.5993C37.8814 19.3194 36.5991 21.0501 35.2439 22.7286C35.1345 22.8264 35.0472 22.9461 34.9874 23.0799C34.9275 23.2138 34.8966 23.3587 34.8966 23.5054C34.8966 23.6518 34.9275 23.7967 34.9874 23.9306C35.0472 24.0645 35.1345 24.1841 35.2439 24.282C37.7355 27.587 40.2062 30.902 42.75 34.301Z" fill="white"/>
<path d="M5.25 23.3438C5.46892 22.3013 5.60447 21.1648 5.90679 20.1015C7.71037 13.6899 15.0603 11.021 20.1165 14.9931C23.0773 17.318 23.8176 20.6124 23.6717 24.3238H6.99103C6.71998 30.954 11.5052 34.958 17.6249 32.914C18.6176 32.559 19.5062 31.963 20.2106 31.178C20.9151 30.394 21.4129 29.446 21.6594 28.421C21.9827 27.378 22.5039 27.201 23.4943 27.503C23.3312 28.773 22.8825 29.988 22.1818 31.059C21.4813 32.13 20.547 33.028 19.4494 33.686C17.6357 34.678 15.555 35.07 13.5046 34.808C11.4543 34.546 9.53931 33.642 8.03357 32.226C6.54396 30.551 5.64324 28.435 5.46893 26.2C5.46893 25.8459 5.3334 25.4914 5.26042 25.1578C5.25347 24.5393 5.25 23.9346 5.25 23.3438ZM7.01188 22.8954H22.0974C22.0035 18.0894 18.9697 14.6803 14.9247 14.6491C10.421 14.5865 7.19955 17.9226 7.00146 22.8746L7.01188 22.8954Z" fill="white"/>
</g>
</svg>
