<svg width="48" height="48" viewBox="0 0 48 48" fill="none" xmlns="http://www.w3.org/2000/svg">
<mask id="mask0_1_80" style="mask-type:luminance" maskUnits="userSpaceOnUse" x="0" y="0" width="48" height="48">
<path d="M48 0H0V48H48V0Z" fill="white"/>
</mask>
<g mask="url(#mask0_1_80)">
<path d="M36.75 0H11.25C5.037 0 0 5.0368 0 11.25V36.75C0 42.963 5.037 48 11.25 48H36.75C42.963 48 48 42.963 48 36.75V11.25C48 5.0368 42.963 0 36.75 0Z" fill="#023430"/>
<path d="M32.095 20.1733C30.119 11.4581 26.002 9.1379 24.951 7.4979C24.518 6.7754 24.134 6.0244 23.803 5.25C23.747 6.0242 23.645 6.512 22.987 7.0991C21.666 8.2773 16.054 12.8504 15.582 22.7527C15.142 31.986 22.369 37.679 23.324 38.267C24.058 38.629 24.953 38.275 25.389 37.943C28.873 35.552 33.633 29.178 32.099 20.1733" fill="#10AA50"/>
<path d="M24.102 33.351C23.92 35.636 23.79 36.964 23.328 38.27C23.328 38.27 23.631 40.445 23.844 42.75H24.598C24.778 41.127 25.052 39.516 25.42 37.925C24.444 37.445 24.14 35.356 24.102 33.351Z" fill="#B8C4C2"/>
<path d="M25.418 37.927C24.433 37.471 24.147 35.338 24.104 33.351C24.347 30.073 24.418 26.784 24.317 23.4986C24.265 21.7747 24.341 7.5314 23.892 5.4461C24.199 6.1524 24.553 6.8374 24.951 7.4966C26.002 9.138 30.121 11.4581 32.095 20.1733C33.633 29.162 28.899 35.52 25.418 37.927Z" fill="#12924F"/>
</g>
</svg>
