<svg width="48" height="48" viewBox="0 0 48 48" fill="none" xmlns="http://www.w3.org/2000/svg">
<mask id="mask0_1_148" style="mask-type:luminance" maskUnits="userSpaceOnUse" x="0" y="0" width="48" height="48">
<path d="M48 0H0V48H48V0Z" fill="white"/>
</mask>
<g mask="url(#mask0_1_148)">
<path d="M36.75 0H11.25C5.0368 0 0 5.0368 0 11.25V36.75C0 42.963 5.0368 48 11.25 48H36.75C42.9632 48 48 42.963 48 36.75V11.25C48 5.0368 42.9632 0 36.75 0Z" fill="#242938"/>
<path d="M22.4771 5.8343C23.3994 5.3064 24.6006 5.3041 25.5219 5.8343C30.1573 8.4535 34.7942 11.0687 39.4288 13.6895C40.3007 14.1805 40.8836 15.1507 40.8748 16.1551V31.914C40.8814 32.96 40.2407 33.953 39.321 34.433C34.7008 37.038 30.0829 39.646 25.4634 42.251C24.5224 42.789 23.2971 42.747 22.3851 42.165C21 41.362 19.6125 40.563 18.2273 39.761C17.9442 39.592 17.6251 39.458 17.4252 39.183C17.6019 38.945 17.9178 38.916 18.1745 38.812C18.7526 38.628 19.2838 38.332 19.8148 38.046C19.9493 37.954 20.1131 37.99 20.2419 38.072C21.4264 38.751 22.6005 39.45 23.7889 40.122C24.0424 40.269 24.2991 40.074 24.5158 39.954C29.0496 37.391 33.5889 34.838 38.1221 32.275C38.2901 32.194 38.3829 32.016 38.3693 31.832C38.3724 26.634 38.37 21.4344 38.3709 16.236C38.3901 16.0272 38.2693 15.8353 38.0805 15.7498C33.4764 13.1569 28.8744 10.5601 24.2711 7.9665C24.1078 7.8542 23.8924 7.854 23.7289 7.9657C19.1254 10.5601 14.5245 13.1593 9.9211 15.7521C9.733 15.8377 9.6068 16.0265 9.6291 16.236C9.6299 21.4344 9.6291 26.634 9.6291 31.833C9.6128 32.017 9.7127 32.191 9.8795 32.27C11.1079 32.967 12.338 33.659 13.5672 34.353C14.2597 34.726 15.1099 34.947 15.8729 34.662C16.5462 34.42 17.0181 33.733 17.0053 33.018C17.0117 27.85 17.0021 22.6813 17.0101 17.514C16.9933 17.2845 17.2109 17.095 17.4339 17.1166C18.0242 17.1126 18.6152 17.1086 19.2054 17.1182C19.4518 17.1126 19.6213 17.3596 19.5909 17.5908C19.5885 22.7916 19.5973 27.992 19.587 33.193C19.5885 34.579 19.0191 36.088 17.737 36.766C16.1576 37.584 14.2054 37.41 12.645 36.626C11.2942 35.952 10.0051 35.156 8.6782 34.434C7.7561 33.956 7.1186 32.959 7.1251 31.914V16.1551C7.1154 15.1299 7.7217 14.1421 8.6206 13.6583C13.24 11.0514 17.8586 8.4424 22.4771 5.8343Z" fill="#81CD39"/>
<path d="M26.5073 16.7503C28.5219 16.6206 30.6788 16.6735 32.4917 17.666C33.8955 18.4266 34.6736 20.0229 34.6984 21.5824C34.6592 21.7926 34.4393 21.9086 34.2384 21.8942C33.654 21.8934 33.0692 21.9022 32.4848 21.8902C32.2367 21.8998 32.0927 21.6712 32.0616 21.4521C31.8936 20.7058 31.4865 19.9669 30.7843 19.6069C29.7062 19.0672 28.4563 19.0944 27.2807 19.1057C26.4225 19.1511 25.4996 19.2255 24.7725 19.7301C24.2143 20.1124 24.0448 20.8841 24.2439 21.5057C24.4318 21.9519 24.9469 22.0959 25.3686 22.2287C27.7965 22.8637 30.3694 22.8004 32.751 23.6361C33.7371 23.9767 34.7016 24.6392 35.0391 25.6716C35.4806 27.055 35.2871 28.709 34.3026 29.82C33.5042 30.734 32.3415 31.231 31.1818 31.502C29.6391 31.846 28.038 31.855 26.4713 31.702C24.9981 31.534 23.4649 31.147 22.3277 30.143C21.3551 29.299 20.8802 27.983 20.9273 26.713C20.9385 26.498 21.1521 26.349 21.3576 26.366C21.9461 26.362 22.5349 26.36 23.1234 26.367C23.3588 26.35 23.5329 26.554 23.5451 26.775C23.6535 27.486 23.9207 28.232 24.5408 28.654C25.737 29.426 27.2383 29.373 28.6082 29.394C29.7431 29.344 31.0172 29.329 31.9433 28.579C32.4319 28.151 32.5766 27.435 32.4446 26.819C32.3016 26.299 31.7576 26.057 31.2906 25.8986C28.8938 25.1406 26.292 25.4156 23.9184 24.5582C22.9547 24.2177 22.0228 23.5738 21.6527 22.5838C21.1361 21.1826 21.3728 19.4494 22.4604 18.3761C23.5209 17.3085 25.0517 16.8974 26.5073 16.7503Z" fill="#81CD39"/>
</g>
</svg>
