<svg width="48" height="48" viewBox="0 0 48 48" fill="none" xmlns="http://www.w3.org/2000/svg">
<mask id="mask0_1_90" style="mask-type:luminance" maskUnits="userSpaceOnUse" x="0" y="0" width="48" height="48">
<path d="M48 0H0V48H48V0Z" fill="white"/>
</mask>
<g mask="url(#mask0_1_90)">
<path d="M36.75 0H11.25C5.037 0 0 5.0368 0 11.25V36.75C0 42.963 5.037 48 11.25 48H36.75C42.963 48 48 42.963 48 36.75V11.25C48 5.0368 42.963 0 36.75 0Z" fill="#262626"/>
<mask id="mask1_1_90" style="mask-type:luminance" maskUnits="userSpaceOnUse" x="7" y="7" width="34" height="34">
<path d="M40.875 7.125H7.125V40.875H40.875V7.125Z" fill="white"/>
</mask>
<g mask="url(#mask1_1_90)">
<path fill-rule="evenodd" clip-rule="evenodd" d="M38.213 33.414C36.377 33.363 34.953 33.551 33.76 34.054C33.416 34.192 32.864 34.192 32.819 34.624C33.003 34.806 33.025 35.103 33.186 35.354C33.461 35.811 33.944 36.426 34.379 36.745L35.848 37.795C36.743 38.341 37.753 38.661 38.625 39.209C39.131 39.528 39.635 39.939 40.14 40.281C40.398 40.464 40.553 40.761 40.875 40.874V40.805C40.715 40.601 40.668 40.304 40.508 40.075L39.819 39.414C39.154 38.525 38.327 37.748 37.432 37.11C36.697 36.608 35.091 35.924 34.793 35.081L34.747 35.029C35.252 34.978 35.848 34.801 36.331 34.664C37.112 34.459 37.823 34.504 38.625 34.299L39.728 33.98V33.775C39.315 33.365 39.016 32.817 38.581 32.43C37.41 31.426 36.124 30.445 34.793 29.624C34.081 29.168 33.163 28.871 32.405 28.484C32.129 28.347 31.671 28.278 31.51 28.05C31.096 27.549 30.867 26.887 30.569 26.293L28.687 22.3245C28.274 21.4348 28.021 20.5451 27.517 19.7241C25.152 15.8461 22.581 13.4968 18.633 11.1925C17.784 10.7134 16.774 10.5074 15.7 10.2568L13.979 10.1648C13.611 10.0053 13.244 9.57171 12.923 9.36621C11.615 8.54511 8.24001 6.76591 7.27601 9.11061C6.65601 10.5933 8.19401 12.0529 8.71601 12.8061C9.10701 13.3306 9.611 13.9237 9.887 14.5168C10.042 14.9043 10.093 15.3154 10.254 15.7259C10.621 16.7295 10.966 17.8477 11.448 18.7834C11.705 19.2624 11.975 19.7649 12.297 20.1981C12.48 20.4536 12.802 20.5631 12.87 20.9736C12.549 21.4301 12.527 22.1137 12.343 22.6849C11.516 25.2626 11.838 28.456 13.008 30.354C13.376 30.924 14.243 32.179 15.419 31.7C16.452 31.289 16.222 29.989 16.52 28.848C16.589 28.575 16.543 28.392 16.68 28.209V28.26L17.622 30.154C18.333 31.271 19.573 32.435 20.606 33.211C21.156 33.622 21.593 34.329 22.281 34.58V34.511H22.236C22.098 34.306 21.891 34.214 21.707 34.054C21.294 33.644 20.835 33.142 20.514 32.686C19.55 31.409 18.701 29.994 17.943 28.534C17.576 27.827 17.254 27.052 16.957 26.344C16.818 26.071 16.818 25.6594 16.589 25.5234C16.244 26.024 15.74 26.459 15.486 27.075C15.05 28.055 15.005 29.264 14.844 30.519C14.752 30.542 14.793 30.519 14.752 30.57C14.018 30.388 13.765 29.635 13.49 28.996C12.801 27.377 12.686 24.7764 13.283 22.9057C13.443 22.4267 14.133 20.9211 13.858 20.4649C13.719 20.0314 13.261 19.7809 13.008 19.4383C12.709 19.0048 12.389 18.4577 12.182 17.9786C11.631 16.7004 11.356 15.2867 10.759 14.0091C10.483 13.416 10.001 12.7999 9.611 12.2529C9.174 11.6368 8.693 11.2032 8.349 10.4736C8.234 10.218 8.07301 9.812 8.25701 9.538C8.30201 9.3555 8.39501 9.2823 8.57801 9.2415C8.87601 8.9858 9.72601 9.31 10.024 9.446C10.873 9.7885 11.585 10.1076 12.296 10.5861C12.618 10.8141 12.962 11.2477 13.376 11.3622H13.858C14.593 11.5217 15.418 11.4133 16.106 11.6178C17.323 12.0064 18.424 12.576 19.412 13.1926C22.419 15.0858 24.899 17.7777 26.573 20.9946C26.849 21.5192 26.963 21.9982 27.217 22.5457C27.699 23.664 28.296 24.8042 28.777 25.9C29.26 26.972 29.718 28.068 30.407 28.957C30.752 29.436 32.128 29.687 32.748 29.938C33.207 30.142 33.918 30.326 34.332 30.577C35.112 31.056 35.893 31.603 36.627 32.128C36.993 32.401 38.142 32.972 38.21 33.427L38.213 33.414ZM14.805 13.5914C14.488 13.5886 14.171 13.6269 13.864 13.7054V13.7565H13.91C14.093 14.1216 14.415 14.3726 14.644 14.6921L15.173 15.7873L15.218 15.7362C15.539 15.5081 15.7 15.1431 15.7 14.596C15.563 14.4365 15.54 14.2765 15.425 14.1169C15.287 13.8889 14.989 13.7734 14.805 13.5914Z" fill="white"/>
</g>
</g>
</svg>
