<svg width="48" height="48" viewBox="0 0 48 48" fill="none" xmlns="http://www.w3.org/2000/svg">
<mask id="mask0_1_117" style="mask-type:luminance" maskUnits="userSpaceOnUse" x="0" y="0" width="48" height="48">
<path d="M48 0H0V48H48V0Z" fill="white"/>
</mask>
<g mask="url(#mask0_1_117)">
<path d="M37.226 0H10.774C4.82399 0 0 4.8236 0 10.7738V37.226C0 43.176 4.82399 48 10.774 48H37.226C43.176 48 48 43.176 48 37.226V10.7738C48 4.8236 43.176 0 37.226 0Z" fill="#6772E5"/>
<path fill-rule="evenodd" clip-rule="evenodd" d="M22.113 18.6214C22.113 17.4742 23.061 16.9588 24.59 16.9588C27.125 17.0136 29.612 17.6568 31.856 18.8375V12.0374C29.548 11.1322 27.086 10.6806 24.607 10.7073C18.688 10.7073 14.731 13.7998 14.731 19.0204C14.731 27.101 25.837 25.7873 25.837 29.279C25.837 30.626 24.657 31.058 23.044 31.058C20.203 30.901 17.437 30.087 14.964 28.68V35.647C17.484 36.736 20.199 37.301 22.944 37.309C29.013 37.309 33.203 34.317 33.203 28.996C33.253 20.3339 22.113 21.8968 22.113 18.6214Z" fill="white"/>
</g>
</svg>
