<svg width="48" height="48" viewBox="0 0 48 48" fill="none" xmlns="http://www.w3.org/2000/svg">
<mask id="mask0_1_47" style="mask-type:luminance" maskUnits="userSpaceOnUse" x="0" y="0" width="48" height="48">
<path d="M48 0H0V48H48V0Z" fill="white"/>
</mask>
<g mask="url(#mask0_1_47)">
<path d="M36.75 0H11.25C5.037 0 0 5.0368 0 11.25V36.75C0 42.9632 5.037 48 11.25 48H36.75C42.963 48 48 42.9632 48 36.75V11.25C48 5.0368 42.963 0 36.75 0Z" fill="url(#paint0_linear_1_47)"/>
<g filter="url(#filter0_d_1_47)">
<path d="M24.744 36.7794C30.309 36.7794 33.662 34.0549 33.662 29.5613C33.662 26.1643 31.269 23.7052 27.717 23.3158V23.1744C30.327 22.7498 32.375 20.3259 32.375 17.6192C32.375 13.7624 29.33 11.25 24.69 11.25H14.25V36.7794H24.744ZM18.31 14.4876H23.711C26.648 14.4876 28.315 15.7968 28.315 18.1675C28.315 20.6976 26.376 22.1128 22.859 22.1128H18.31V14.4876ZM18.31 33.5419V25.1383H23.675C27.518 25.1383 29.511 26.5536 29.511 29.3136C29.511 32.0734 27.572 33.5419 23.911 33.5419H18.31Z" fill="url(#paint1_linear_1_47)"/>
<path d="M24.744 36.7794C30.309 36.7794 33.662 34.0549 33.662 29.5613C33.662 26.1643 31.269 23.7052 27.717 23.3158V23.1744C30.327 22.7498 32.375 20.3259 32.375 17.6192C32.375 13.7624 29.33 11.25 24.69 11.25H14.25V36.7794H24.744ZM18.31 14.4876H23.711C26.648 14.4876 28.315 15.7968 28.315 18.1675C28.315 20.6976 26.376 22.1128 22.859 22.1128H18.31V14.4876ZM18.31 33.5419V25.1383H23.675C27.518 25.1383 29.511 26.5536 29.511 29.3136C29.511 32.0734 27.572 33.5419 23.911 33.5419H18.31Z" stroke="white" stroke-width="0.375"/>
</g>
</g>
<defs>
<filter id="filter0_d_1_47" x="11.0625" y="8.8125" width="25.787" height="31.9044" filterUnits="userSpaceOnUse" color-interpolation-filters="sRGB">
<feFlood flood-opacity="0" result="BackgroundImageFix"/>
<feColorMatrix in="SourceAlpha" type="matrix" values="0 0 0 0 0 0 0 0 0 0 0 0 0 0 0 0 0 0 127 0" result="hardAlpha"/>
<feOffset dy="0.75"/>
<feGaussianBlur stdDeviation="1.5"/>
<feColorMatrix type="matrix" values="0 0 0 0 0 0 0 0 0 0 0 0 0 0 0 0 0 0 0.15 0"/>
<feBlend mode="normal" in2="BackgroundImageFix" result="effect1_dropShadow_1_47"/>
<feBlend mode="normal" in="SourceGraphic" in2="effect1_dropShadow_1_47" result="shape"/>
</filter>
<linearGradient id="paint0_linear_1_47" x1="0" y1="0" x2="48" y2="48" gradientUnits="userSpaceOnUse">
<stop stop-color="#9013FE"/>
<stop offset="1" stop-color="#6B11F4"/>
</linearGradient>
<linearGradient id="paint1_linear_1_47" x1="16.086" y1="12.9304" x2="27.851" y2="32.8283" gradientUnits="userSpaceOnUse">
<stop stop-color="white"/>
<stop offset="1" stop-color="#F1E5FC"/>
</linearGradient>
</defs>
</svg>
