<svg width="48" height="48" viewBox="0 0 48 48" fill="none" xmlns="http://www.w3.org/2000/svg">
<mask id="mask0_1_33" style="mask-type:luminance" maskUnits="userSpaceOnUse" x="0" y="0" width="48" height="48">
<path d="M48 0H0V48H48V0Z" fill="white"/>
</mask>
<g mask="url(#mask0_1_33)">
<path d="M36.75 0H11.25C5.037 0 0 5.0368 0 11.25V36.75C0 42.9632 5.037 48 11.25 48H36.75C42.963 48 48 42.9632 48 36.75V11.25C48 5.0368 42.963 0 36.75 0Z" fill="#0277BD"/>
<path d="M10.079 19.2471L10.615 25.2362H24.018V19.2471H10.079Z" fill="#EBEBEB"/>
<path d="M24.018 7.125H23.997H9L9.54401 13.1142H24.018V7.125Z" fill="#EBEBEB"/>
<path d="M24.018 41.0327V34.8015L23.992 34.8084L17.321 33.0075L16.895 28.2307H13.654H10.883L11.722 37.6346L23.99 41.0404L24.018 41.0327Z" fill="#EBEBEB"/>
<path d="M31.372 25.2362L30.677 33.0036L23.997 34.8066V41.0374L36.275 37.6346L36.365 36.6227L37.773 20.8554L37.919 19.2471L39 7.125H23.997V13.1142H32.436L31.892 19.2471H23.997V25.2362H31.372Z" fill="white"/>
</g>
</svg>
