<svg width="48" height="48" viewBox="0 0 48 48" fill="none" xmlns="http://www.w3.org/2000/svg">
<mask id="mask0_1_134" style="mask-type:luminance" maskUnits="userSpaceOnUse" x="0" y="0" width="48" height="48">
<path d="M48 0H0V48H48V0Z" fill="white"/>
</mask>
<g mask="url(#mask0_1_134)">
<path d="M36.75 0H11.25C5.037 0 0 5.0368 0 11.25V36.75C0 42.963 5.037 48 11.25 48H36.75C42.963 48 48 42.963 48 36.75V11.25C48 5.0368 42.963 0 36.75 0Z" fill="#262626"/>
<path d="M23.007 19.4242C23.318 18.9661 23.658 18.9079 23.934 18.9079C24.21 18.9079 24.669 18.9661 24.98 19.4242C27.43 22.7887 31.473 29.491 34.456 34.435C36.401 37.659 37.895 40.135 38.201 40.451C39.352 41.634 40.93 40.896 41.847 39.554C42.749 38.233 43 37.306 43 36.316C43 35.642 29.922 11.3192 28.605 9.2946C27.338 7.3473 26.926 6.8555 24.758 6.8555H23.136C20.974 6.8555 20.662 7.3473 19.395 9.2946C18.078 11.3192 5 35.642 5 36.316C5 37.306 5.25102 38.233 6.15302 39.554C7.07002 40.896 8.64801 41.634 9.79901 40.451C10.105 40.135 11.599 37.659 13.544 34.435C16.527 29.491 20.557 22.7887 23.007 19.4242Z" fill="white"/>
</g>
</svg>
