<svg width="48" height="48" viewBox="0 0 48 48" fill="none" xmlns="http://www.w3.org/2000/svg">
<mask id="mask0_1_24" style="mask-type:luminance" maskUnits="userSpaceOnUse" x="0" y="0" width="48" height="48">
<path d="M48 0H0V48H48V0Z" fill="white"/>
</mask>
<g mask="url(#mask0_1_24)">
<path d="M36.75 0H11.25C5.037 0 0 5.0368 0 11.25V36.75C0 42.9632 5.037 48 11.25 48H36.75C42.963 48 48 42.9632 48 36.75V11.25C48 5.0368 42.963 0 36.75 0Z" fill="#E14E1D"/>
<path d="M9 7.125L10.614 25.2362H31.373L30.676 33.0043L23.992 34.8114L17.321 33.0069L16.875 28.0191H10.864L11.723 37.6343L23.991 41.0415L36.274 37.6343L37.921 19.2478H16.092L15.544 13.1147H38.445H38.464L39 7.125H9Z" fill="white"/>
<path d="M24 7.125H9L10.614 25.2362H24V19.2478H16.092L15.544 13.1146H24V7.125Z" fill="#EBEBEB"/>
<path d="M24 34.8088L23.992 34.8114L17.321 33.0069L16.875 28.0191H10.864L11.723 37.6343L23.991 41.0415L24 41.0389V34.8088Z" fill="#EBEBEB"/>
</g>
</svg>
