<svg width="48" height="48" viewBox="0 0 48 48" fill="none" xmlns="http://www.w3.org/2000/svg">
<mask id="mask0_1_65" style="mask-type:luminance" maskUnits="userSpaceOnUse" x="0" y="0" width="48" height="48">
<path d="M48 0H0V48H48V0Z" fill="white"/>
</mask>
<g mask="url(#mask0_1_65)">
<path d="M36.75 0H11.25C5.037 0 0 5.0368 0 11.25V36.75C0 42.9632 5.037 48 11.25 48H36.75C42.963 48 48 42.9632 48 36.75V11.25C48 5.0368 42.963 0 36.75 0Z" fill="#262626"/>
<path d="M24 27.5533C25.932 27.5533 27.498 25.9871 27.498 24.0553C27.498 22.1235 25.932 20.5573 24 20.5573C22.068 20.5573 20.502 22.1235 20.502 24.0553C20.502 25.9871 22.068 27.5533 24 27.5533Z" fill="#00D8FF"/>
<path fill-rule="evenodd" clip-rule="evenodd" d="M24 16.9431C28.697 16.9431 33.06 17.617 36.349 18.7495C40.313 20.1141 42.75 22.1824 42.75 24.0553C42.75 26.007 40.167 28.2043 35.911 29.6145C32.693 30.6806 28.459 31.2371 24 31.2371C19.429 31.2371 15.101 30.7147 11.847 29.6027C7.72998 28.1955 5.25 25.9699 5.25 24.0553C5.25 22.1976 7.57699 20.1452 11.485 18.7828C14.787 17.6316 19.257 16.9431 24 16.9431Z" stroke="#00D8FF" stroke-width="1.67081"/>
<path fill-rule="evenodd" clip-rule="evenodd" d="M17.809 20.5196C20.155 16.4513 22.919 13.0084 25.543 10.7245C28.705 7.9726 31.715 6.8949 33.337 7.8304C35.027 8.8054 35.641 12.1406 34.736 16.5321C34.053 19.8523 32.419 23.7984 30.191 27.6606C27.908 31.6202 25.293 35.1088 22.704 37.3716C19.429 40.2351 16.262 41.2714 14.603 40.3149C12.994 39.3876 12.378 36.3461 13.15 32.2802C13.803 28.8446 15.441 24.6279 17.809 20.5196Z" stroke="#00D8FF" stroke-width="1.67081"/>
<path fill-rule="evenodd" clip-rule="evenodd" d="M17.815 27.6709C15.462 23.607 13.86 19.4929 13.191 16.0784C12.386 11.9645 12.955 8.8192 14.576 7.8809C16.265 6.9031 19.461 8.0374 22.814 11.0144C25.349 13.2652 27.952 16.651 30.186 20.5093C32.476 24.4652 34.192 28.473 34.86 31.8458C35.705 36.114 35.021 39.3752 33.364 40.3343C31.756 41.265 28.814 40.2797 25.677 37.5801C23.027 35.2993 20.191 31.7753 17.815 27.6709Z" stroke="#00D8FF" stroke-width="1.67081"/>
</g>
</svg>
