<svg width="48" height="48" viewBox="0 0 48 48" fill="none" xmlns="http://www.w3.org/2000/svg">
<mask id="mask0_1_72" style="mask-type:luminance" maskUnits="userSpaceOnUse" x="0" y="0" width="48" height="48">
<path d="M48 0H0V48H48V0Z" fill="white"/>
</mask>
<g mask="url(#mask0_1_72)">
<path d="M36.75 0H11.25C5.037 0 0 5.0368 0 11.25V36.75C0 42.9632 5.037 48 11.25 48H36.75C42.963 48 48 42.9632 48 36.75V11.25C48 5.0368 42.963 0 36.75 0Z" fill="#262626"/>
<path d="M42.579 10.8003L24.986 42.2604C24.622 42.9101 23.689 42.9139 23.32 42.2676L5.37799 10.8033C4.97599 10.0989 5.57901 9.2457 6.37701 9.3884L23.989 12.5365C24.101 12.5566 24.217 12.5564 24.329 12.5359L41.573 9.3929C42.368 9.2479 42.974 10.0945 42.579 10.8003Z" fill="url(#paint0_linear_1_72)"/>
<path d="M32.379 5.2592L19.359 7.8104C19.145 7.8523 18.987 8.0337 18.974 8.2513L18.173 21.7778C18.154 22.0963 18.447 22.3436 18.757 22.2718L22.382 21.4354C22.722 21.3572 23.028 21.6559 22.958 21.9969L21.881 27.2706C21.809 27.6255 22.142 27.9289 22.489 27.8237L24.728 27.1434C25.075 27.0381 25.408 27.3424 25.335 27.6977L23.623 35.9813C23.516 36.4995 24.205 36.7821 24.493 36.3377L24.685 36.0411L35.294 14.8686C35.472 14.5141 35.165 14.1099 34.776 14.185L31.045 14.9051C30.694 14.9727 30.396 14.6462 30.495 14.3031L32.93 5.8609C33.029 5.5173 32.73 5.1905 32.379 5.2592Z" fill="url(#paint1_linear_1_72)"/>
</g>
<defs>
<linearGradient id="paint0_linear_1_72" x1="4.93999" y1="8.2641" x2="26.836" y2="38.0012" gradientUnits="userSpaceOnUse">
<stop stop-color="#41D1FF"/>
<stop offset="1" stop-color="#BD34FE"/>
</linearGradient>
<linearGradient id="paint1_linear_1_72" x1="22.978" y1="5.9519" x2="26.939" y2="33.1238" gradientUnits="userSpaceOnUse">
<stop stop-color="#FFEA83"/>
<stop offset="0.0833333" stop-color="#FFDD35"/>
<stop offset="1" stop-color="#FFA800"/>
</linearGradient>
</defs>
</svg>
